<svg width="106" height="30" viewBox="0 0 106 30" fill="none" xmlns="http://www.w3.org/2000/svg">
<circle cx="15" cy="15" r="15" fill="#FF6B00"/>
<path d="M16.2273 10.576V12.22H12.7953V13.996H15.3633V15.592H12.7953V19H10.7433V10.576H16.2273Z" fill="white"/>
<path d="M47.266 10.172V12.09H43.262V14.162H46.258V16.024H43.262V20H40.868V10.172H47.266ZM57.2383 12.188V20H54.8443V18.936C54.6016 19.2813 54.2703 19.5613 53.8503 19.776C53.4396 19.9813 52.9823 20.084 52.4783 20.084C51.8809 20.084 51.3536 19.9533 50.8963 19.692C50.4389 19.4213 50.0843 19.034 49.8323 18.53C49.5803 18.026 49.4543 17.4333 49.4543 16.752V12.188H51.8343V16.43C51.8343 16.9527 51.9696 17.3587 52.2403 17.648C52.5109 17.9373 52.8749 18.082 53.3323 18.082C53.7989 18.082 54.1676 17.9373 54.4383 17.648C54.7089 17.3587 54.8443 16.9527 54.8443 16.43V12.188H57.2383ZM59.4818 16.08C59.4818 15.2773 59.6312 14.5727 59.9298 13.966C60.2378 13.3593 60.6532 12.8927 61.1758 12.566C61.6985 12.2393 62.2818 12.076 62.9258 12.076C63.4392 12.076 63.9058 12.1833 64.3258 12.398C64.7552 12.6127 65.0912 12.902 65.3338 13.266V9.64H67.7278V20H65.3338V18.88C65.1098 19.2533 64.7878 19.552 64.3678 19.776C63.9572 20 63.4765 20.112 62.9258 20.112C62.2818 20.112 61.6985 19.9487 61.1758 19.622C60.6532 19.286 60.2378 18.8147 59.9298 18.208C59.6312 17.592 59.4818 16.8827 59.4818 16.08ZM65.3338 16.094C65.3338 15.4967 65.1658 15.0253 64.8298 14.68C64.5032 14.3347 64.1018 14.162 63.6258 14.162C63.1498 14.162 62.7438 14.3347 62.4078 14.68C62.0812 15.016 61.9178 15.4827 61.9178 16.08C61.9178 16.6773 62.0812 17.1533 62.4078 17.508C62.7438 17.8533 63.1498 18.026 63.6258 18.026C64.1018 18.026 64.5032 17.8533 64.8298 17.508C65.1658 17.1627 65.3338 16.6913 65.3338 16.094ZM71.6638 11.376C71.2438 11.376 70.8985 11.2547 70.6278 11.012C70.3665 10.76 70.2358 10.452 70.2358 10.088C70.2358 9.71467 70.3665 9.40667 70.6278 9.164C70.8985 8.912 71.2438 8.786 71.6638 8.786C72.0745 8.786 72.4105 8.912 72.6718 9.164C72.9425 9.40667 73.0778 9.71467 73.0778 10.088C73.0778 10.452 72.9425 10.76 72.6718 11.012C72.4105 11.2547 72.0745 11.376 71.6638 11.376ZM72.8538 12.188V20H70.4598V12.188H72.8538ZM97.2003 20.112C96.519 20.112 95.9123 19.9953 95.3803 19.762C94.8483 19.5287 94.4283 19.2113 94.1203 18.81C93.8123 18.3993 93.6396 17.942 93.6023 17.438H95.9683C95.9963 17.7087 96.1223 17.928 96.3463 18.096C96.5703 18.264 96.8456 18.348 97.1723 18.348C97.471 18.348 97.6996 18.292 97.8583 18.18C98.0263 18.0587 98.1103 17.9047 98.1103 17.718C98.1103 17.494 97.9936 17.3307 97.7603 17.228C97.527 17.116 97.149 16.9947 96.6263 16.864C96.0663 16.7333 95.5996 16.598 95.2263 16.458C94.853 16.3087 94.531 16.08 94.2603 15.772C93.9896 15.4547 93.8543 15.03 93.8543 14.498C93.8543 14.05 93.9756 13.644 94.2183 13.28C94.4703 12.9067 94.8343 12.6127 95.3103 12.398C95.7956 12.1833 96.3696 12.076 97.0323 12.076C98.0123 12.076 98.7823 12.3187 99.3423 12.804C99.9116 13.2893 100.238 13.9333 100.322 14.736H98.1103C98.073 14.4653 97.9516 14.2507 97.7463 14.092C97.5503 13.9333 97.289 13.854 96.9623 13.854C96.6823 13.854 96.4676 13.91 96.3183 14.022C96.169 14.1247 96.0943 14.2693 96.0943 14.456C96.0943 14.68 96.211 14.848 96.4443 14.96C96.687 15.072 97.0603 15.184 97.5643 15.296C98.143 15.4453 98.6143 15.5947 98.9783 15.744C99.3423 15.884 99.6596 16.1173 99.9303 16.444C100.21 16.7613 100.355 17.1907 100.364 17.732C100.364 18.1893 100.234 18.6 99.9723 18.964C99.7203 19.3187 99.3516 19.5987 98.8663 19.804C98.3903 20.0093 97.835 20.112 97.2003 20.112Z" fill="#222222"/>
<path d="M82.9527 15.968C82.9527 16.192 82.9387 16.4253 82.9107 16.668H77.4927C77.53 17.1533 77.684 17.5267 77.9547 17.788C78.2347 18.04 78.5754 18.166 78.9767 18.166C79.574 18.166 79.9894 17.914 80.2227 17.41H82.7707C82.64 17.9233 82.402 18.3853 82.0567 18.796C81.7207 19.2067 81.296 19.5287 80.7827 19.762C80.2694 19.9953 79.6954 20.112 79.0607 20.112C78.2954 20.112 77.614 19.9487 77.0167 19.622C76.4194 19.2953 75.9527 18.8287 75.6167 18.222C75.2807 17.6153 75.1127 16.906 75.1127 16.094C75.1127 15.282 75.276 14.5727 75.6027 13.966C75.9387 13.3593 76.4054 12.8927 77.0027 12.566C77.6 12.2393 78.286 12.076 79.0607 12.076C79.8167 12.076 80.4887 12.2347 81.0767 12.552C81.6647 12.8693 82.122 13.322 82.4487 13.91C82.7847 14.498 82.9527 15.184 82.9527 15.968ZM80.5027 15.338C80.5027 14.9273 80.3627 14.6007 80.0827 14.358C79.8027 14.1153 79.4527 13.994 79.0327 13.994C78.6314 13.994 78.2907 14.1107 78.0107 14.344C77.74 14.5773 77.572 14.9087 77.5067 15.338H80.5027ZM88.3937 20.112C87.7123 20.112 87.1057 19.9953 86.5737 19.762C86.0417 19.5287 85.6217 19.2113 85.3137 18.81C85.0057 18.3993 84.833 17.942 84.7957 17.438H87.1617C87.1897 17.7087 87.3157 17.928 87.5397 18.096C87.7637 18.264 88.039 18.348 88.3657 18.348C88.6643 18.348 88.893 18.292 89.0517 18.18C89.2197 18.0587 89.3037 17.9047 89.3037 17.718C89.3037 17.494 89.187 17.3307 88.9537 17.228C88.7203 17.116 88.3423 16.9947 87.8197 16.864C87.2597 16.7333 86.793 16.598 86.4197 16.458C86.0463 16.3087 85.7243 16.08 85.4537 15.772C85.183 15.4547 85.0477 15.03 85.0477 14.498C85.0477 14.05 85.169 13.644 85.4117 13.28C85.6637 12.9067 86.0277 12.6127 86.5037 12.398C86.989 12.1833 87.563 12.076 88.2257 12.076C89.2057 12.076 89.9757 12.3187 90.5357 12.804C91.105 13.2893 91.4317 13.9333 91.5157 14.736H89.3037C89.2663 14.4653 89.145 14.2507 88.9397 14.092C88.7437 13.9333 88.4823 13.854 88.1557 13.854C87.8757 13.854 87.661 13.91 87.5117 14.022C87.3623 14.1247 87.2877 14.2693 87.2877 14.456C87.2877 14.68 87.4043 14.848 87.6377 14.96C87.8803 15.072 88.2537 15.184 88.7577 15.296C89.3363 15.4453 89.8077 15.5947 90.1717 15.744C90.5357 15.884 90.853 16.1173 91.1237 16.444C91.4037 16.7613 91.5483 17.1907 91.5577 17.732C91.5577 18.1893 91.427 18.6 91.1657 18.964C90.9137 19.3187 90.545 19.5987 90.0597 19.804C89.5837 20.0093 89.0283 20.112 88.3937 20.112ZM103.949 20.112C103.529 20.112 103.184 19.9907 102.913 19.748C102.652 19.496 102.521 19.188 102.521 18.824C102.521 18.4507 102.652 18.138 102.913 17.886C103.184 17.634 103.529 17.508 103.949 17.508C104.36 17.508 104.696 17.634 104.957 17.886C105.228 18.138 105.363 18.4507 105.363 18.824C105.363 19.188 105.228 19.496 104.957 19.748C104.696 19.9907 104.36 20.112 103.949 20.112Z" fill="#FF6B00"/>
</svg>
